<?xml version="1.0" encoding="utf-8"?>
<!-- Generator: Adobe Illustrator 21.1.0, SVG Export Plug-In . SVG Version: 6.00 Build 0)  -->
<svg version="1.1" id="Capa_1" xmlns="http://www.w3.org/2000/svg" xmlns:xlink="http://www.w3.org/1999/xlink" x="0px" y="0px"
	 viewBox="0 0 1080 1080" enable-background="new 0 0 1080 1080" xml:space="preserve">
<g id="Capa_1_1_">
</g>
<g id="BASE_CIRCULO">
	<circle fill="#FFFFFF" cx="539" cy="541" r="489"/>
</g>
<g id="HOJAS">
	<path id="Relleno" fill="#A2D13D" d="M352,785c0,0-39.8,0-53,0c-14,0-14,0-14-13c0-133.3,0-399.8,0-533c0-12,0-12,14-12
		c105,0,315,0,420,0c13,0,13,0,13,12c0,15,0,45,0,60c0,9,13.5,25.5,13.5,25.5S811,385,811,390c0,118,0,351.8,0,469c0,14,0,14-13,14
		c-105.1,0-315,0-420,0c-13,0-13,0-13-14c0-18.6,0-74,0-74H352z"/>
	<polygon id="Relleno_x5F_2" fill="#67871A" points="365,785 365,312 732,312 732,227 285,227 285,785 	"/>
	<path id="CONTORNO" fill="none" stroke="#67871A" stroke-width="20" stroke-miterlimit="10" d="M352,785c0,0-39.8,0-53,0
		c-14,0-14,0-14-13c0-133.3,0-399.8,0-533c0-12,0-12,14-12c105,0,315,0,420,0c13,0,13,0,13,12c0,15,0,45,0,60
		c0,9,13.5,25.5,13.5,25.5S811,385,811,390c0,118,0,351.8,0,469c0,14,0,14-13,14c-105.1,0-315,0-420,0c-13,0-13,0-13-14
		c0-18.6,0-74,0-74H352z"/>
	<path fill="none" stroke="#67871A" stroke-width="20" stroke-miterlimit="10" d="M365,785c0,0,0-345,0-460c0-13,0-13,13-13
		c82,0,328,0,328,0s0,69,0,92c0,14,0,14,13,14c19.8,0,92,0,92,0"/>
	<line fill="none" stroke="#67871A" stroke-width="20" stroke-miterlimit="10" x1="732" y1="312" x2="706" y2="312"/>
</g>
<g id="DIAGRAMA">
	<path id="Conecciones" fill="#FFFFFF" d="M525.5,592.5c0,0,43.5,0,58,0c6,0,6,7,6,12c0,41.3,0,165,0,165l46,1v11c0,0-38,0-52,0
		c-6,0-6,1-6-12c0-43,0-166,0-166l-52,1V592.5z"/>
	<path id="Rec_x5F_Naranja" fill="#F0901D" d="M417,610c0-6,0-18,0-24c0-12,8.6-12,13-12c29.5,0,88.5,0,118,0c12,0,12,7.8,12,12
		c0,6,0,18,0,24c0,4.4,0,13-12,13c-26,0-88.5,0-118,0C417,623,417,614.6,417,610z"/>
	<path id="Rec_x5F_Azul" fill="#1594AB" d="M500,699c0-6,0-18,0-24c0-12,9.4-12,14-12c43.8,0,131.3,0,175,0c14,0,14,12,14,12
		s0,18,0,24c0,4.6,0,12-14,12c-43.8,0-131.3,0-175,0C509.4,711,500,711,500,699z"/>
	<path id="Coneccion_1_" fill="#FFFFFF" d="M626,415l0.2,91h-15c0,0-0.2-91.6-0.2-91C611,415.7,626,415,626,415z"/>
	<path id="Rec_x5F_Azul_1_" fill="#1594AB" d="M565,516c0-6,0-18,0-24c0-12,5.2-12,7.7-12c24.1,0,72.4,0,96.6,0c7.7,0,7.7,12,7.7,12
		s0,18,0,24c0,4.6,0,12-7.7,12c-24.1,0-72.4,0-96.6,0C570.2,528,565,528,565,516z"/>
	<path id="Rec_x5F_Rojo" fill="#EA5B2E" d="M619,788c0-5.8,0-17,0-23c0-13,9.2-13,14-13c28.5,0,85.5,0,114,0c15,0,15,8,15,13
		c0,5.8,0,17,0,23c0,12-10.2,12-15,12c-28.5,0-85.5,0-114,0C628.4,800,619,800,619,788z"/>
	<path id="Coneccion" fill="#FFFFFF" d="M472,403h147v15c0,0-148,0-147,0S472,403,472,403z"/>
	<circle id="Círculo" fill="#EA5B2E" cx="472.5" cy="410.5" r="52.5"/>
	<polygon id="Triangulo" fill="#F0901D" points="578,441 661,441 618,368 	"/>
</g>
</svg>
